<?xml version="1.0" encoding="utf-8"?>
<!-- Generator: Adobe Illustrator 26.0.0, SVG Export Plug-In . SVG Version: 6.00 Build 0)  -->
<svg version="1.1" id="Layer_1" xmlns="http://www.w3.org/2000/svg" xmlns:xlink="http://www.w3.org/1999/xlink" x="0px" y="0px"
	 viewBox="0 0 100 100" style="enable-background:new 0 0 100 100;" xml:space="preserve">
<style type="text/css">
	.st0{fill:#606060;}
	.st1{fill:#BFBFBF;}
</style>
<rect x="19.3" y="40.1" class="st0" width="12.1" height="58.9"/>
<path class="st1" d="M23.6,1.5L5.2,33.4c-0.8,1.3,0.2,3,1.7,3h36.8c1.6,0,2.5-1.7,1.7-3L27.1,1.5C26.3,0.2,24.4,0.2,23.6,1.5z"/>
<rect x="68.6" y="1" transform="matrix(-1 -8.984781e-11 8.984781e-11 -1 149.3323 60.9086)" class="st0" width="12.1" height="58.9"/>
<path class="st1" d="M76.4,98.5l18.4-31.9c0.8-1.3-0.2-3-1.7-3H56.2c-1.6,0-2.5,1.7-1.7,3l18.4,31.9C73.7,99.8,75.6,99.8,76.4,98.5z
	"/>
</svg>
