<?xml version="1.0" encoding="utf-8"?>
<!-- Generator: Adobe Illustrator 26.0.0, SVG Export Plug-In . SVG Version: 6.00 Build 0)  -->
<svg version="1.1" id="Layer_1" xmlns="http://www.w3.org/2000/svg" xmlns:xlink="http://www.w3.org/1999/xlink" x="0px" y="0px"
	 viewBox="0 0 100 100" style="enable-background:new 0 0 100 100;" xml:space="preserve">
<style type="text/css">
	.st0{fill:#606060;}
	.st1{fill:#B7B7B7;}
</style>
<path d="M92.75,32.26c0-2.18-0.73-2.84-3.16-2.84c-5.69,0-11.39-0.02-17.08,0.02c-0.18,0-0.34,0-0.48-0.02h-6.54
	c-0.11,0.01-0.23,0.01-0.36,0.01c-1.04-0.01-2.08-0.01-3.12-0.01H40.59c-1.44,0-2.88,0.01-4.33,0.02c-0.17,0-0.32,0-0.46-0.02h-8.55
	c-5.69,0-11.37-0.01-17.05,0c-2.18,0.01-2.96,0.71-2.96,2.65V89c0,5.52,4.48,10,10,10h65.52c5.52,0,10-4.48,10-10V48.04
	C92.75,42.78,92.75,37.52,92.75,32.26z M34.78,57.91c0,1.32-1.07,2.39-2.39,2.39c-1.31,0-2.38-1.07-2.38-2.39V49.2
	c0-1.31,1.07-2.38,2.38-2.38c0.66,0,1.26,0.27,1.69,0.7c0.43,0.43,0.7,1.02,0.7,1.68V57.91z M71.19,57.91
	c0,1.32-1.06,2.39-2.38,2.39s-2.39-1.07-2.39-2.39V49.2c0-1.31,1.07-2.38,2.39-2.38c0.66,0,1.25,0.27,1.69,0.7
	c0.42,0.43,0.69,1.02,0.69,1.68V57.91z"/>
<path class="st1" d="M66.42,28.28c-0.06-1.39,0.03-2.79-0.02-4.18c-0.09-2.54,0.1-5.13-0.42-7.61C64.56,9.7,57.26,4.79,49.79,5.31
	c-8.28,0.58-14.55,6.13-14.91,13.33c-0.16,3.14-0.02,6.29-0.1,9.43c-0.03,0.88,0.21,1.27,1.02,1.35h-5.74c0-0.62-0.01-1.09,0-1.55
	c0.09-3.7-0.09-7.42,0.33-11.08c0.88-7.51,7.8-14.01,16.03-15.43c10.46-1.8,20.28,3.28,23.6,12.36c0.67,1.82,0.91,3.81,1.02,5.73
	c0.17,2.9,0.09,5.81,0.03,8.72c-0.03,0.84,0.24,1.17,0.96,1.25h-6.54C66.19,29.36,66.46,29.06,66.42,28.28z"/>
</svg>
