<?xml version="1.0" encoding="utf-8"?>
<!-- Generator: Adobe Illustrator 26.0.0, SVG Export Plug-In . SVG Version: 6.00 Build 0)  -->
<svg version="1.1" id="Layer_1" xmlns="http://www.w3.org/2000/svg" xmlns:xlink="http://www.w3.org/1999/xlink" x="0px" y="0px"
	 viewBox="0 0 100 100" style="enable-background:new 0 0 100 100;" xml:space="preserve">
<style type="text/css">
	.st0{fill:#606060;}
	.st1{fill:#B7B7B7;}
</style>
<g>
	<path class="st0" d="M50.08,84.32c-12.58,0-25.17,0-37.75,0c-1.55,0-1.4-0.02-1.58-1.53c-0.25-2.06,0.53-4.13,2.1-5.48
		c1.19-1.03,2.32-2.14,3.43-3.27c2.81-2.85,4.36-6.7,4.35-10.7C20.6,56,20.61,48.66,20.61,41.32c0-6.66,1.93-13.24,5.88-18.6
		c3.93-5.33,9.05-8.81,15.08-10.62c0.84-0.25,1.14-0.63,1.13-1.49c-0.04-2.82,0.01-5.63-0.03-8.45c-0.01-0.9,0.31-1.16,1.17-1.15
		c4.13,0.03,8.26,0.04,12.4,0c0.87-0.01,1.19,0.24,1.17,1.15c-0.05,2.82,0.01,5.63-0.03,8.45c-0.01,0.86,0.27,1.24,1.13,1.49
		c12.13,3.57,20.85,14.09,20.92,26.74c0.05,8.15,0.04,16.29,0.02,24.44c-0.01,4.06,1.59,7.95,4.46,10.82
		c1.42,1.42,2.83,2.84,4.27,4.24c0.78,0.76,1.15,1.54,1.13,2.65c-0.07,3.34-0.02,3.34-3.39,3.34
		C73.97,84.32,62.02,84.32,50.08,84.32z"/>
	<path class="st1" d="M50.08,89.27c2.85,0,5.71,0.02,8.56-0.01c0.92-0.01,1.27,0.19,1.11,1.22c-0.71,4.54-4.26,8.11-8.52,8.48
		c-5,0.43-9.08-2.24-10.58-6.91c-0.84-2.61-0.72-2.78,1.99-2.78C45.12,89.27,47.6,89.27,50.08,89.27z"/>
</g>
</svg>
