<?xml version="1.0" encoding="utf-8"?>
<!-- Generator: Adobe Illustrator 26.0.0, SVG Export Plug-In . SVG Version: 6.00 Build 0)  -->
<svg version="1.1" id="Layer_1" xmlns="http://www.w3.org/2000/svg" xmlns:xlink="http://www.w3.org/1999/xlink" x="0px" y="0px"
	 viewBox="0 0 100 100" style="enable-background:new 0 0 100 100;" xml:space="preserve">
<style type="text/css">
	.st0{fill:#606060;}
	.st1{fill:#B7B7B7;}
</style>
<rect x="-19.93" y="8.93" class="st0" width="13.59" height="13.59"/>
<rect x="-19.93" y="25.63" class="st1" width="13.48" height="13.48"/>
<g>
	<path class="st0" d="M99,20.89v23.12c0,3.31-2.69,6.01-6.01,6.01H7.01c-3.32,0-6.01-2.7-6.01-6.01V20.89
		c0-3.32,2.69-6.01,6.01-6.01h21.77V9.05c0-1.13,0.92-2.05,2.05-2.05h0.9c1.13,0,2.05,0.92,2.05,2.05v5.83h32.44V9.05
		c0-1.13,0.92-2.05,2.05-2.05h0.9c1.13,0,2.05,0.92,2.05,2.05v5.83h21.77C96.31,14.89,99,17.57,99,20.89z"/>
	<path class="st1" d="M92.43,28.26H7.57C3.94,28.26,1,31.21,1,34.84v51.58c0,3.63,2.94,6.57,6.57,6.57h84.86
		c3.63,0,6.57-2.94,6.57-6.57V34.84C99,31.21,96.06,28.26,92.43,28.26z M90,70.9H10v-5h80V70.9z M90,55.35H10v-5h80V55.35z"/>
</g>
</svg>
