<?xml version="1.0" encoding="utf-8"?>
<!-- Generator: Adobe Illustrator 26.0.0, SVG Export Plug-In . SVG Version: 6.00 Build 0)  -->
<svg version="1.1" id="Layer_1" xmlns="http://www.w3.org/2000/svg" xmlns:xlink="http://www.w3.org/1999/xlink" x="0px" y="0px"
	 viewBox="0 0 100 100" style="enable-background:new 0 0 100 100;" xml:space="preserve">
<style type="text/css">
	.st0{fill:#606060;}
</style>
<path d="M77.5,1h-55c-5.5,0-10,4.5-10,10v78c0,5.5,4.5,10,10,10h55c5.5,0,10-4.5,10-10V11C87.5,5.5,83,1,77.5,1z M21,63.8h47.7v5H21
	V63.8z M79,82H21v-5H79V82z"/>
<path class="st0" d="M87.5,11v20.3H68c-5.5,0-10-4.5-10-10V1h19.5C83,1,87.5,5.5,87.5,11z"/>
</svg>
