<?xml version="1.0" encoding="utf-8"?>
<!-- Generator: Adobe Illustrator 26.0.0, SVG Export Plug-In . SVG Version: 6.00 Build 0)  -->
<svg version="1.1" id="Layer_1" xmlns="http://www.w3.org/2000/svg" xmlns:xlink="http://www.w3.org/1999/xlink" x="0px" y="0px"
	 viewBox="0 0 100 100" style="enable-background:new 0 0 100 100;" xml:space="preserve">
<style type="text/css">
	.st0{opacity:0.8;fill:url(#SVGID_1_);stroke:#E6EFF4;stroke-width:0.25;stroke-miterlimit:10;}
	.st1{fill:#0C264C;}
	.st2{fill:#7190BD;}
</style>
<linearGradient id="SVGID_1_" gradientUnits="userSpaceOnUse" x1="13.8203" y1="76.8698" x2="90.3397" y2="21.0982">
	<stop  offset="0" style="stop-color:#373581"/>
	<stop  offset="0.1393" style="stop-color:#595896"/>
	<stop  offset="0.3201" style="stop-color:#7F7FAE"/>
	<stop  offset="0.4995" style="stop-color:#9D9DC0"/>
	<stop  offset="0.6747" style="stop-color:#B2B3CD"/>
	<stop  offset="0.8438" style="stop-color:#BFC0D5"/>
	<stop  offset="1" style="stop-color:#C3C4D8"/>
</linearGradient>
<path class="st0" d="M78.5,98h-57c-10.5,0-19-8.5-19-19V22c0-10.5,8.5-19,19-19h57c10.5,0,19,8.5,19,19v57C97.5,89.5,89,98,78.5,98z
	"/>
<g>
	<path class="st1" d="M44,46.2H27.1c-1,0-1.8-0.8-1.8-1.8V27.5c0-1,0.8-1.8,1.8-1.8H44c1,0,1.8,0.8,1.8,1.8v16.9
		C45.8,45.4,45,46.2,44,46.2z"/>
	<path class="st1" d="M44,75H27.1c-1,0-1.8-0.8-1.8-1.8V56.3c0-1,0.8-1.8,1.8-1.8H44c1,0,1.8,0.8,1.8,1.8v16.9
		C45.8,74.2,45,75,44,75z"/>
	<path class="st2" d="M73.7,45.5H55.2c-0.6,0-1-0.4-1-1V26c0-0.6,0.4-1,1-1h18.5c0.6,0,1,0.4,1,1v18.5
		C74.7,45.1,74.2,45.5,73.7,45.5z"/>
	<path class="st1" d="M72.9,75H56c-1,0-1.8-0.8-1.8-1.8V56.3c0-1,0.8-1.8,1.8-1.8h16.9c1,0,1.8,0.8,1.8,1.8v16.9
		C74.7,74.2,73.9,75,72.9,75z"/>
</g>
</svg>
