<?xml version="1.0" encoding="utf-8"?>
<!-- Generator: Adobe Illustrator 26.0.0, SVG Export Plug-In . SVG Version: 6.00 Build 0)  -->
<svg version="1.1" id="Layer_1" xmlns="http://www.w3.org/2000/svg" xmlns:xlink="http://www.w3.org/1999/xlink" x="0px" y="0px"
	 viewBox="0 0 100 100" style="enable-background:new 0 0 100 100;" xml:space="preserve">
<style type="text/css">
	.st0{fill:#B7B7B7;}
	.st1{fill:#606060;}
</style>
<path class="st0" d="M1,44.84V16.01c0-2.8,2.27-5.07,5.07-5.07h31.01c1.74,0,3.42,0.65,4.71,1.81l5.32,4.81
	c1.13,1.02,2.61,1.59,4.13,1.59h9.16v25.68H1z"/>
<path class="st1" d="M92.45,19.09H50.26l-7.1,7.1c-1.32,1.33-3.12,2.07-4.99,2.07H4.21C2.44,28.26,1,29.7,1,31.47V82.5
	c0,3.62,2.94,6.55,6.55,6.55h84.9c3.62,0,6.55-2.93,6.55-6.55V25.64C99,22.03,96.07,19.09,92.45,19.09z M89,55.07H11v-2h78V55.07z"
	/>
</svg>
