<?xml version="1.0" encoding="utf-8"?>
<!-- Generator: Adobe Illustrator 26.0.0, SVG Export Plug-In . SVG Version: 6.00 Build 0)  -->
<svg version="1.1" id="Layer_1" xmlns="http://www.w3.org/2000/svg" xmlns:xlink="http://www.w3.org/1999/xlink" x="0px" y="0px"
	 viewBox="0 0 100 100" style="enable-background:new 0 0 100 100;" xml:space="preserve">
<style type="text/css">
	.st0{fill:#606060;}
	.st1{fill:#B7B7B7;}
</style>
<path class="st1" d="M99,20.75v58.51c0,4.12-2.94,7.46-6.57,7.46H7.57C3.94,86.72,1,83.38,1,79.26V20.75c0-1.56,0.42-3.01,1.14-4.21
	l45.37,32.08c1.49,1.05,3.49,1.05,4.98,0l45.37-32.08C98.58,17.74,99,19.19,99,20.75z"/>
<path class="st0" d="M96.6,14.98L52.39,46.24c-1.43,1.01-3.35,1.01-4.78,0L3.4,14.98c1.13-1.06,2.59-1.7,4.17-1.7h84.86
	C94.01,13.28,95.47,13.92,96.6,14.98z"/>
</svg>
