<?xml version="1.0" encoding="utf-8"?>
<!-- Generator: Adobe Illustrator 26.0.0, SVG Export Plug-In . SVG Version: 6.00 Build 0)  -->
<svg version="1.1" id="Layer_1" xmlns="http://www.w3.org/2000/svg" xmlns:xlink="http://www.w3.org/1999/xlink" x="0px" y="0px"
	 viewBox="0 0 100 100" style="enable-background:new 0 0 100 100;" xml:space="preserve">
<style type="text/css">
	.st0{fill:#606060;}
	.st1{fill:#B7B7B7;}
</style>
<g>
	<path class="st0" d="M38.25,42.63H5.18c-1.99,0-3.6-1.61-3.6-3.6V5.97c0-1.99,1.61-3.6,3.6-3.6h33.06c1.99,0,3.6,1.61,3.6,3.6
		v33.06C41.85,41.02,40.23,42.63,38.25,42.63z"/>
	<path class="st0" d="M38.25,99H5.18c-1.99,0-3.6-1.61-3.6-3.6V62.34c0-1.99,1.61-3.6,3.6-3.6h33.06c1.99,0,3.6,1.61,3.6,3.6V95.4
		C41.85,97.39,40.23,99,38.25,99z"/>
	<path class="st1" d="M96.44,41.26H60.13c-1.09,0-1.97-0.88-1.97-1.97V2.97c0-1.09,0.88-1.97,1.97-1.97h36.32
		c1.09,0,1.97,0.88,1.97,1.97v36.32C98.42,40.38,97.53,41.26,96.44,41.26z"/>
	<path class="st0" d="M94.82,99H61.75c-1.99,0-3.6-1.61-3.6-3.6V62.34c0-1.99,1.61-3.6,3.6-3.6h33.06c1.99,0,3.6,1.61,3.6,3.6V95.4
		C98.42,97.39,96.8,99,94.82,99z"/>
</g>
</svg>
