<?xml version="1.0" encoding="utf-8"?>
<!-- Generator: Adobe Illustrator 26.0.0, SVG Export Plug-In . SVG Version: 6.00 Build 0)  -->
<svg version="1.1" id="Layer_1" xmlns="http://www.w3.org/2000/svg" xmlns:xlink="http://www.w3.org/1999/xlink" x="0px" y="0px"
	 viewBox="0 0 100 100" style="enable-background:new 0 0 100 100;" xml:space="preserve">
<style type="text/css">
	.st0{fill:#B7B7B7;}
</style>
<g>
	<path d="M88.2,35.3c-18.2,18.2-36.5,36.5-55,55L25,93.7C17.3,95.4,9.4,97.2,1.1,99c1.8-8.3,3.6-16.2,5.3-24l3.7-8.6l0.1-0.3l0,0
		c0.1-0.2,0.3-0.4,0.5-0.6c17.6-17.6,35.2-35.2,52.8-52.8c0.4-0.4,0.8-0.7,1.1-1C72.6,19.6,80.4,27.5,88.2,35.3z"/>
	<path d="M94.4,29.4c-8.1-7.9-16-15.6-24.1-23.5c4.2-4.1,8.9-5.4,14.4-4.7c6.7,0.9,12.1,6,13.9,13C99.9,19.6,97.8,26.8,94.4,29.4z"
		/>
</g>
</svg>
