<?xml version="1.0" encoding="utf-8"?>
<!-- Generator: Adobe Illustrator 26.0.0, SVG Export Plug-In . SVG Version: 6.00 Build 0)  -->
<svg version="1.1" id="Layer_1" xmlns="http://www.w3.org/2000/svg" xmlns:xlink="http://www.w3.org/1999/xlink" x="0px" y="0px"
	 viewBox="0 0 100 100" style="enable-background:new 0 0 100 100;" xml:space="preserve">
<path d="M99,45.7v8.5c0,1.8-1.5,3.2-3.2,3.2H57.5v38.3c0,1.8-1.5,3.2-3.2,3.2h-8.5c-1.8,0-3.2-1.5-3.2-3.2V57.5H4.2
	C2.5,57.5,1,56,1,54.3v-8.5c0-1.8,1.5-3.2,3.2-3.2h38.3V4.2C42.5,2.5,44,1,45.7,1h8.5c1.8,0,3.2,1.5,3.2,3.2v38.3h38.3
	C97.5,42.5,99,44,99,45.7z"/>
</svg>
