<?xml version="1.0" encoding="utf-8"?>
<!-- Generator: Adobe Illustrator 26.0.0, SVG Export Plug-In . SVG Version: 6.00 Build 0)  -->
<svg version="1.1" id="Layer_1" xmlns="http://www.w3.org/2000/svg" xmlns:xlink="http://www.w3.org/1999/xlink" x="0px" y="0px"
	 viewBox="0 0 100 100" style="enable-background:new 0 0 100 100;" xml:space="preserve">
<path d="M48.8,65c-2.2-7.7-9.3-13.4-17.7-13.4c-8.4,0-15.5,5.7-17.7,13.4H1v10h12.5c2.2,7.7,9.3,13.4,17.7,13.4
	c8.4,0,15.5-5.7,17.7-13.4H99V65H48.8z M37.1,75.9c-1.5,1.5-3.6,2.5-5.9,2.5c-2.7,0-5.2-1.3-6.7-3.4c-1-1.4-1.7-3.1-1.7-5
	s0.6-3.6,1.7-5c1.5-2,4-3.4,6.7-3.4c2.7,0,5.2,1.3,6.7,3.4c1,1.4,1.7,3.1,1.7,5s-0.6,3.6-1.7,5C37.6,75.3,37.3,75.6,37.1,75.9z"/>
<path d="M1,25v10h50.2c2.2,7.7,9.3,13.4,17.7,13.4c8.4,0,15.5-5.7,17.7-13.4H99V25H86.5c-2.2-7.7-9.3-13.4-17.7-13.4
	c-8.4,0-15.5,5.7-17.7,13.4H1z M62.1,35c-1-1.4-1.7-3.1-1.7-5s0.6-3.6,1.7-5c1.5-2,4-3.4,6.7-3.4c2.7,0,5.2,1.3,6.7,3.4
	c1,1.4,1.7,3.1,1.7,5s-0.6,3.6-1.7,5c-1.5,2-4,3.4-6.7,3.4c-2.3,0-4.4-0.9-5.9-2.5C62.7,35.6,62.4,35.3,62.1,35z"/>
</svg>
